<?xml version="1.0" standalone="no"?>
<!DOCTYPE svg PUBLIC "-//W3C//DTD SVG 20010904//EN"
 "http://www.w3.org/TR/2001/REC-SVG-20010904/DTD/svg10.dtd">
<svg version="1.0" xmlns="http://www.w3.org/2000/svg"
 width="827.000000pt" height="827.000000pt" viewBox="0 0 827.000000 827.000000"
 preserveAspectRatio="xMidYMid meet">

<g transform="translate(0.000000,827.000000) scale(0.100000,-0.100000)"
fill="#000000" stroke="none">
<path d="M0 4135 l0 -4135 4135 0 4135 0 0 4135 0 4135 -4135 0 -4135 0 0
-4135z m4640 0 l0 -3025 -670 0 -670 0 0 2430 0 2430 -1235 0 -1235 0 0 595 0
595 1905 0 1905 0 0 -3025z m1835 2329 c161 -31 340 -109 473 -206 597 -434
661 -1294 137 -1814 -214 -212 -487 -328 -800 -341 -333 -14 -674 126 -903
371 -165 178 -274 398 -312 629 -15 92 -12 303 5 403 80 458 426 825 890 945
144 38 352 43 510 13z"/>
</g>
</svg>
