<?xml version="1.0" standalone="no"?>
<!DOCTYPE svg PUBLIC "-//W3C//DTD SVG 20010904//EN"
 "http://www.w3.org/TR/2001/REC-SVG-20010904/DTD/svg10.dtd">
<svg version="1.0" xmlns="http://www.w3.org/2000/svg"
 width="600.000000pt" height="400.000000pt" viewBox="0 0 600.000000 400.000000"
 preserveAspectRatio="xMidYMid meet">

<g transform="translate(0.000000,400.000000) scale(0.100000,-0.100000)"
fill="#000000" stroke="none">
<path d="M0 2000 l0 -2000 3000 0 3000 0 0 2000 0 2000 -3000 0 -3000 0 0
-2000z m3160 0 l0 -970 -212 2 -213 3 -3 778 -2 777 -395 0 -395 0 0 190 0
190 610 0 610 0 0 -970z m671 718 c154 -71 247 -236 222 -396 -13 -85 -44
-149 -100 -212 -150 -167 -433 -156 -573 22 -165 208 -70 522 183 604 68 22
200 13 268 -18z"/>
</g>
</svg>
